<svg xmlns="http://www.w3.org/2000/svg" version="1.1" xmlns:xlink="http://www.w3.org/1999/xlink" xmlns:svgjs="http://svgjs.dev/svgjs" viewBox="0 0 2400 800" opacity="1"><defs><linearGradient x1="50%" y1="0%" x2="50%" y2="100%" id="sssurf-grad"><stop stop-color="hsla(0, 0%, 67%, 1.00)" stop-opacity="1" offset="0%"></stop><stop stop-color="hsl(208, 74%, 93%)" stop-opacity="1" offset="100%"></stop></linearGradient></defs><g fill="url(#sssurf-grad)" transform="matrix(1,0,0,1,10.8282470703125,-36.96529006958008)"><path d="M-10,10C33.75,11.041666666666666,114.58333333333334,20.833333333333336,200,15C285.41666666666663,9.166666666666666,316.66666666666663,-19.666666666666668,400,-18C483.33333333333337,-16.333333333333332,516.6666666666666,20.916666666666668,600,23C683.3333333333334,25.083333333333332,716.6666666666666,-7.583333333333333,800,-8C883.3333333333334,-8.416666666666666,916.6666666666666,20.375,1000,21C1083.3333333333333,21.625,1116.6666666666667,-5.625,1200,-5C1283.3333333333333,-4.375,1316.6666666666667,25.041666666666668,1400,24C1483.3333333333333,22.958333333333332,1516.6666666666667,-14.375,1600,-10C1683.3333333333333,-5.625,1716.6666666666667,42.708333333333336,1800,45C1883.3333333333333,47.291666666666664,1916.6666666666667,2.041666666666667,2000,1C2083.3333333333335,-0.04166666666666674,2118.75,38.125,2200,40C2281.25,41.875,2296.25,-65,2390,10C2483.75,85,3252.0833333333335,214.58333333333331,2650,400C2047.9166666666665,585.4166666666667,156.25,795.8333333333334,-500,900" transform="matrix(1,0,0,1,0,72)" opacity="0.05"></path><path d="M-10,10C33.75,11.041666666666666,114.58333333333334,20.833333333333336,200,15C285.41666666666663,9.166666666666666,316.66666666666663,-19.666666666666668,400,-18C483.33333333333337,-16.333333333333332,516.6666666666666,20.916666666666668,600,23C683.3333333333334,25.083333333333332,716.6666666666666,-7.583333333333333,800,-8C883.3333333333334,-8.416666666666666,916.6666666666666,20.375,1000,21C1083.3333333333333,21.625,1116.6666666666667,-5.625,1200,-5C1283.3333333333333,-4.375,1316.6666666666667,25.041666666666668,1400,24C1483.3333333333333,22.958333333333332,1516.6666666666667,-14.375,1600,-10C1683.3333333333333,-5.625,1716.6666666666667,42.708333333333336,1800,45C1883.3333333333333,47.291666666666664,1916.6666666666667,2.041666666666667,2000,1C2083.3333333333335,-0.04166666666666674,2118.75,38.125,2200,40C2281.25,41.875,2296.25,-65,2390,10C2483.75,85,3252.0833333333335,214.58333333333331,2650,400C2047.9166666666665,585.4166666666667,156.25,795.8333333333334,-500,900" transform="matrix(1,0,0,1,0,144)" opacity="0.16"></path><path d="M-10,10C33.75,11.041666666666666,114.58333333333334,20.833333333333336,200,15C285.41666666666663,9.166666666666666,316.66666666666663,-19.666666666666668,400,-18C483.33333333333337,-16.333333333333332,516.6666666666666,20.916666666666668,600,23C683.3333333333334,25.083333333333332,716.6666666666666,-7.583333333333333,800,-8C883.3333333333334,-8.416666666666666,916.6666666666666,20.375,1000,21C1083.3333333333333,21.625,1116.6666666666667,-5.625,1200,-5C1283.3333333333333,-4.375,1316.6666666666667,25.041666666666668,1400,24C1483.3333333333333,22.958333333333332,1516.6666666666667,-14.375,1600,-10C1683.3333333333333,-5.625,1716.6666666666667,42.708333333333336,1800,45C1883.3333333333333,47.291666666666664,1916.6666666666667,2.041666666666667,2000,1C2083.3333333333335,-0.04166666666666674,2118.75,38.125,2200,40C2281.25,41.875,2296.25,-65,2390,10C2483.75,85,3252.0833333333335,214.58333333333331,2650,400C2047.9166666666665,585.4166666666667,156.25,795.8333333333334,-500,900" transform="matrix(1,0,0,1,0,216)" opacity="0.26"></path><path d="M-10,10C33.75,11.041666666666666,114.58333333333334,20.833333333333336,200,15C285.41666666666663,9.166666666666666,316.66666666666663,-19.666666666666668,400,-18C483.33333333333337,-16.333333333333332,516.6666666666666,20.916666666666668,600,23C683.3333333333334,25.083333333333332,716.6666666666666,-7.583333333333333,800,-8C883.3333333333334,-8.416666666666666,916.6666666666666,20.375,1000,21C1083.3333333333333,21.625,1116.6666666666667,-5.625,1200,-5C1283.3333333333333,-4.375,1316.6666666666667,25.041666666666668,1400,24C1483.3333333333333,22.958333333333332,1516.6666666666667,-14.375,1600,-10C1683.3333333333333,-5.625,1716.6666666666667,42.708333333333336,1800,45C1883.3333333333333,47.291666666666664,1916.6666666666667,2.041666666666667,2000,1C2083.3333333333335,-0.04166666666666674,2118.75,38.125,2200,40C2281.25,41.875,2296.25,-65,2390,10C2483.75,85,3252.0833333333335,214.58333333333331,2650,400C2047.9166666666665,585.4166666666667,156.25,795.8333333333334,-500,900" transform="matrix(1,0,0,1,0,288)" opacity="0.37"></path><path d="M-10,10C33.75,11.041666666666666,114.58333333333334,20.833333333333336,200,15C285.41666666666663,9.166666666666666,316.66666666666663,-19.666666666666668,400,-18C483.33333333333337,-16.333333333333332,516.6666666666666,20.916666666666668,600,23C683.3333333333334,25.083333333333332,716.6666666666666,-7.583333333333333,800,-8C883.3333333333334,-8.416666666666666,916.6666666666666,20.375,1000,21C1083.3333333333333,21.625,1116.6666666666667,-5.625,1200,-5C1283.3333333333333,-4.375,1316.6666666666667,25.041666666666668,1400,24C1483.3333333333333,22.958333333333332,1516.6666666666667,-14.375,1600,-10C1683.3333333333333,-5.625,1716.6666666666667,42.708333333333336,1800,45C1883.3333333333333,47.291666666666664,1916.6666666666667,2.041666666666667,2000,1C2083.3333333333335,-0.04166666666666674,2118.75,38.125,2200,40C2281.25,41.875,2296.25,-65,2390,10C2483.75,85,3252.0833333333335,214.58333333333331,2650,400C2047.9166666666665,585.4166666666667,156.25,795.8333333333334,-500,900" transform="matrix(1,0,0,1,0,360)" opacity="0.47"></path><path d="M-10,10C33.75,11.041666666666666,114.58333333333334,20.833333333333336,200,15C285.41666666666663,9.166666666666666,316.66666666666663,-19.666666666666668,400,-18C483.33333333333337,-16.333333333333332,516.6666666666666,20.916666666666668,600,23C683.3333333333334,25.083333333333332,716.6666666666666,-7.583333333333333,800,-8C883.3333333333334,-8.416666666666666,916.6666666666666,20.375,1000,21C1083.3333333333333,21.625,1116.6666666666667,-5.625,1200,-5C1283.3333333333333,-4.375,1316.6666666666667,25.041666666666668,1400,24C1483.3333333333333,22.958333333333332,1516.6666666666667,-14.375,1600,-10C1683.3333333333333,-5.625,1716.6666666666667,42.708333333333336,1800,45C1883.3333333333333,47.291666666666664,1916.6666666666667,2.041666666666667,2000,1C2083.3333333333335,-0.04166666666666674,2118.75,38.125,2200,40C2281.25,41.875,2296.25,-65,2390,10C2483.75,85,3252.0833333333335,214.58333333333331,2650,400C2047.9166666666665,585.4166666666667,156.25,795.8333333333334,-500,900" transform="matrix(1,0,0,1,0,432)" opacity="0.58"></path><path d="M-10,10C33.75,11.041666666666666,114.58333333333334,20.833333333333336,200,15C285.41666666666663,9.166666666666666,316.66666666666663,-19.666666666666668,400,-18C483.33333333333337,-16.333333333333332,516.6666666666666,20.916666666666668,600,23C683.3333333333334,25.083333333333332,716.6666666666666,-7.583333333333333,800,-8C883.3333333333334,-8.416666666666666,916.6666666666666,20.375,1000,21C1083.3333333333333,21.625,1116.6666666666667,-5.625,1200,-5C1283.3333333333333,-4.375,1316.6666666666667,25.041666666666668,1400,24C1483.3333333333333,22.958333333333332,1516.6666666666667,-14.375,1600,-10C1683.3333333333333,-5.625,1716.6666666666667,42.708333333333336,1800,45C1883.3333333333333,47.291666666666664,1916.6666666666667,2.041666666666667,2000,1C2083.3333333333335,-0.04166666666666674,2118.75,38.125,2200,40C2281.25,41.875,2296.25,-65,2390,10C2483.75,85,3252.0833333333335,214.58333333333331,2650,400C2047.9166666666665,585.4166666666667,156.25,795.8333333333334,-500,900" transform="matrix(1,0,0,1,0,504)" opacity="0.68"></path><path d="M-10,10C33.75,11.041666666666666,114.58333333333334,20.833333333333336,200,15C285.41666666666663,9.166666666666666,316.66666666666663,-19.666666666666668,400,-18C483.33333333333337,-16.333333333333332,516.6666666666666,20.916666666666668,600,23C683.3333333333334,25.083333333333332,716.6666666666666,-7.583333333333333,800,-8C883.3333333333334,-8.416666666666666,916.6666666666666,20.375,1000,21C1083.3333333333333,21.625,1116.6666666666667,-5.625,1200,-5C1283.3333333333333,-4.375,1316.6666666666667,25.041666666666668,1400,24C1483.3333333333333,22.958333333333332,1516.6666666666667,-14.375,1600,-10C1683.3333333333333,-5.625,1716.6666666666667,42.708333333333336,1800,45C1883.3333333333333,47.291666666666664,1916.6666666666667,2.041666666666667,2000,1C2083.3333333333335,-0.04166666666666674,2118.75,38.125,2200,40C2281.25,41.875,2296.25,-65,2390,10C2483.75,85,3252.0833333333335,214.58333333333331,2650,400C2047.9166666666665,585.4166666666667,156.25,795.8333333333334,-500,900" transform="matrix(1,0,0,1,0,576)" opacity="0.79"></path><path d="M-10,10C33.75,11.041666666666666,114.58333333333334,20.833333333333336,200,15C285.41666666666663,9.166666666666666,316.66666666666663,-19.666666666666668,400,-18C483.33333333333337,-16.333333333333332,516.6666666666666,20.916666666666668,600,23C683.3333333333334,25.083333333333332,716.6666666666666,-7.583333333333333,800,-8C883.3333333333334,-8.416666666666666,916.6666666666666,20.375,1000,21C1083.3333333333333,21.625,1116.6666666666667,-5.625,1200,-5C1283.3333333333333,-4.375,1316.6666666666667,25.041666666666668,1400,24C1483.3333333333333,22.958333333333332,1516.6666666666667,-14.375,1600,-10C1683.3333333333333,-5.625,1716.6666666666667,42.708333333333336,1800,45C1883.3333333333333,47.291666666666664,1916.6666666666667,2.041666666666667,2000,1C2083.3333333333335,-0.04166666666666674,2118.75,38.125,2200,40C2281.25,41.875,2296.25,-65,2390,10C2483.75,85,3252.0833333333335,214.58333333333331,2650,400C2047.9166666666665,585.4166666666667,156.25,795.8333333333334,-500,900" transform="matrix(1,0,0,1,0,648)" opacity="0.89"></path><path d="M-10,10C33.75,11.041666666666666,114.58333333333334,20.833333333333336,200,15C285.41666666666663,9.166666666666666,316.66666666666663,-19.666666666666668,400,-18C483.33333333333337,-16.333333333333332,516.6666666666666,20.916666666666668,600,23C683.3333333333334,25.083333333333332,716.6666666666666,-7.583333333333333,800,-8C883.3333333333334,-8.416666666666666,916.6666666666666,20.375,1000,21C1083.3333333333333,21.625,1116.6666666666667,-5.625,1200,-5C1283.3333333333333,-4.375,1316.6666666666667,25.041666666666668,1400,24C1483.3333333333333,22.958333333333332,1516.6666666666667,-14.375,1600,-10C1683.3333333333333,-5.625,1716.6666666666667,42.708333333333336,1800,45C1883.3333333333333,47.291666666666664,1916.6666666666667,2.041666666666667,2000,1C2083.3333333333335,-0.04166666666666674,2118.75,38.125,2200,40C2281.25,41.875,2296.25,-65,2390,10C2483.75,85,3252.0833333333335,214.58333333333331,2650,400C2047.9166666666665,585.4166666666667,156.25,795.8333333333334,-500,900" transform="matrix(1,0,0,1,0,720)" opacity="1.00"></path></g></svg>