<svg xmlns="http://www.w3.org/2000/svg" version="1.1" xmlns:xlink="http://www.w3.org/1999/xlink" xmlns:svgjs="http://svgjs.dev/svgjs" viewBox="0 0 2400 800" opacity="1"><defs><linearGradient x1="50%" y1="0%" x2="50%" y2="100%" id="sssurf-grad"><stop stop-color="hsla(208, 100%, 18%, 1.00)" stop-opacity="1" offset="0%"></stop><stop stop-color="hsl(208, 74%, 93%)" stop-opacity="1" offset="100%"></stop></linearGradient></defs><g fill="url(#sssurf-grad)" transform="matrix(1,0,0,1,-10.4755859375,-65.84152221679688)"><path d="M-10,10C242.08333333333331,18.333333333333336,697.9166666666666,54.166666666666664,1200,50C1702.0833333333335,45.833333333333336,2097.9166666666665,-82.91666666666667,2400,-10C2702.0833333333335,62.91666666666667,3254.1666666666665,210.41666666666669,2650,400C2045.8333333333335,589.5833333333333,156.25,795.8333333333334,-500,900" transform="matrix(1,0,0,1,0,72)" opacity="0.05"></path><path d="M-10,10C242.08333333333331,18.333333333333336,697.9166666666666,54.166666666666664,1200,50C1702.0833333333335,45.833333333333336,2097.9166666666665,-82.91666666666667,2400,-10C2702.0833333333335,62.91666666666667,3254.1666666666665,210.41666666666669,2650,400C2045.8333333333335,589.5833333333333,156.25,795.8333333333334,-500,900" transform="matrix(1,0,0,1,0,144)" opacity="0.15"></path><path d="M-10,10C242.08333333333331,18.333333333333336,697.9166666666666,54.166666666666664,1200,50C1702.0833333333335,45.833333333333336,2097.9166666666665,-82.91666666666667,2400,-10C2702.0833333333335,62.91666666666667,3254.1666666666665,210.41666666666669,2650,400C2045.8333333333335,589.5833333333333,156.25,795.8333333333334,-500,900" transform="matrix(1,0,0,1,0,216)" opacity="0.24"></path><path d="M-10,10C242.08333333333331,18.333333333333336,697.9166666666666,54.166666666666664,1200,50C1702.0833333333335,45.833333333333336,2097.9166666666665,-82.91666666666667,2400,-10C2702.0833333333335,62.91666666666667,3254.1666666666665,210.41666666666669,2650,400C2045.8333333333335,589.5833333333333,156.25,795.8333333333334,-500,900" transform="matrix(1,0,0,1,0,288)" opacity="0.34"></path><path d="M-10,10C242.08333333333331,18.333333333333336,697.9166666666666,54.166666666666664,1200,50C1702.0833333333335,45.833333333333336,2097.9166666666665,-82.91666666666667,2400,-10C2702.0833333333335,62.91666666666667,3254.1666666666665,210.41666666666669,2650,400C2045.8333333333335,589.5833333333333,156.25,795.8333333333334,-500,900" transform="matrix(1,0,0,1,0,360)" opacity="0.43"></path><path d="M-10,10C242.08333333333331,18.333333333333336,697.9166666666666,54.166666666666664,1200,50C1702.0833333333335,45.833333333333336,2097.9166666666665,-82.91666666666667,2400,-10C2702.0833333333335,62.91666666666667,3254.1666666666665,210.41666666666669,2650,400C2045.8333333333335,589.5833333333333,156.25,795.8333333333334,-500,900" transform="matrix(1,0,0,1,0,432)" opacity="0.53"></path><path d="M-10,10C242.08333333333331,18.333333333333336,697.9166666666666,54.166666666666664,1200,50C1702.0833333333335,45.833333333333336,2097.9166666666665,-82.91666666666667,2400,-10C2702.0833333333335,62.91666666666667,3254.1666666666665,210.41666666666669,2650,400C2045.8333333333335,589.5833333333333,156.25,795.8333333333334,-500,900" transform="matrix(1,0,0,1,0,504)" opacity="0.62"></path><path d="M-10,10C242.08333333333331,18.333333333333336,697.9166666666666,54.166666666666664,1200,50C1702.0833333333335,45.833333333333336,2097.9166666666665,-82.91666666666667,2400,-10C2702.0833333333335,62.91666666666667,3254.1666666666665,210.41666666666669,2650,400C2045.8333333333335,589.5833333333333,156.25,795.8333333333334,-500,900" transform="matrix(1,0,0,1,0,576)" opacity="0.72"></path><path d="M-10,10C242.08333333333331,18.333333333333336,697.9166666666666,54.166666666666664,1200,50C1702.0833333333335,45.833333333333336,2097.9166666666665,-82.91666666666667,2400,-10C2702.0833333333335,62.91666666666667,3254.1666666666665,210.41666666666669,2650,400C2045.8333333333335,589.5833333333333,156.25,795.8333333333334,-500,900" transform="matrix(1,0,0,1,0,648)" opacity="0.81"></path><path d="M-10,10C242.08333333333331,18.333333333333336,697.9166666666666,54.166666666666664,1200,50C1702.0833333333335,45.833333333333336,2097.9166666666665,-82.91666666666667,2400,-10C2702.0833333333335,62.91666666666667,3254.1666666666665,210.41666666666669,2650,400C2045.8333333333335,589.5833333333333,156.25,795.8333333333334,-500,900" transform="matrix(1,0,0,1,0,720)" opacity="0.91"></path><path d="M-10,10C242.08333333333331,18.333333333333336,697.9166666666666,54.166666666666664,1200,50C1702.0833333333335,45.833333333333336,2097.9166666666665,-82.91666666666667,2400,-10C2702.0833333333335,62.91666666666667,3254.1666666666665,210.41666666666669,2650,400C2045.8333333333335,589.5833333333333,156.25,795.8333333333334,-500,900" transform="matrix(1,0,0,1,0,792)" opacity="1.00"></path></g></svg>